<svg id="visual" viewBox="0 0 900 600" width="900" height="600" xmlns="http://www.w3.org/2000/svg" xmlns:xlink="http://www.w3.org/1999/xlink" version="1.1"><rect x="0" y="0" width="900" height="600" fill="#F7CACA"></rect><g fill="#FF0066"><circle r="60" cx="732" cy="513"></circle><circle r="23" cx="226" cy="264"></circle><circle r="42" cx="484" cy="269"></circle><circle r="38" cx="645" cy="335"></circle><circle r="31" cx="77" cy="358"></circle><circle r="31" cx="394" cy="426"></circle><circle r="35" cx="646" cy="47"></circle><circle r="31" cx="799" cy="193"></circle><circle r="32" cx="260" cy="589"></circle><circle r="30" cx="776" cy="4"></circle><circle r="25" cx="893" cy="458"></circle><circle r="31" cx="214" cy="129"></circle><circle r="22" cx="413" cy="124"></circle><circle r="24" cx="75" cy="207"></circle><circle r="35" cx="214" cy="468"></circle><circle r="32" cx="556" cy="471"></circle><circle r="39" cx="455" cy="537"></circle><circle r="30" cx="60" cy="49"></circle><circle r="25" cx="825" cy="340"></circle><circle r="51" cx="526" cy="12"></circle><circle r="22" cx="187" cy="6"></circle><circle r="35" cx="9" cy="488"></circle><circle r="51" cx="81" cy="593"></circle><circle r="49" cx="607" cy="208"></circle><circle r="29" cx="365" cy="298"></circle><circle r="41" cx="323" cy="16"></circle><circle r="38" cx="618" cy="590"></circle><circle r="30" cx="891" cy="589"></circle><circle r="45" cx="870" cy="91"></circle></g></svg>